<svg width="425" height="425" viewBox="0 0 425 425" fill="none" xmlns="http://www.w3.org/2000/svg">
    <g opacity="0.3" clip-path="url(#clip0_4111_307)">
        <path d="M362.467 1.52112H61.012C27.316 1.52112 0 28.8371 0 62.5331V363.988C0 397.684 27.316 425 61.012 425H362.467C396.163 425 423.479 397.684 423.479 363.988V62.5331C423.479 28.8371 396.163 1.52112 362.467 1.52112Z"
              stroke="#048C80" stroke-miterlimit="10"/>
        <path d="M357.462 68.8001V212.956H212.956L357.219 68.8001H357.462Z" fill="url(#paint0_linear_4111_307)"/>
        <path d="M68.8001 68.4503H212.956V212.956L68.8001 68.6936V68.4503Z" fill="url(#paint1_linear_4111_307)"/>
        <path d="M68.4503 357.113V212.956H212.956L68.7088 357.113H68.4503Z" fill="url(#paint2_linear_4111_307)"/>
        <path d="M357.113 357.462H212.956V212.956L357.113 357.204V357.462Z" fill="url(#paint3_linear_4111_307)"/>
    </g>
    <defs>
        <linearGradient id="paint0_linear_4111_307" x1="357.462" y1="68.8001" x2="152.44" y2="217.757"
                        gradientUnits="userSpaceOnUse">
            <stop stop-color="#AAD9D1"/>
            <stop offset="1" stop-color="#017373"/>
        </linearGradient>
        <linearGradient id="paint1_linear_4111_307" x1="212.956" y1="68.4503" x2="7.74572" y2="216.823"
                        gradientUnits="userSpaceOnUse">
            <stop stop-color="#AAD9D1"/>
            <stop offset="1" stop-color="#017373"/>
        </linearGradient>
        <linearGradient id="paint2_linear_4111_307" x1="212.956" y1="212.956" x2="7.93339" y2="361.913"
                        gradientUnits="userSpaceOnUse">
            <stop stop-color="#AAD9D1"/>
            <stop offset="1" stop-color="#017373"/>
        </linearGradient>
        <linearGradient id="paint3_linear_4111_307" x1="357.113" y1="212.956" x2="151.902" y2="361.329"
                        gradientUnits="userSpaceOnUse">
            <stop stop-color="#AAD9D1"/>
            <stop offset="1" stop-color="#017373"/>
        </linearGradient>
        <clipPath id="clip0_4111_307">
            <rect width="425" height="425" fill="white"/>
        </clipPath>
    </defs>
</svg>
