<svg width="138" height="19" viewBox="0 0 138 19" fill="none" xmlns="http://www.w3.org/2000/svg">
    <path d="M7.296 18.3899C6.144 18.3899 5.16 18.2539 4.344 17.9819C3.544 17.6939 2.872 17.3339 2.328 16.9019C1.8 16.4539 1.376 15.9899 1.056 15.5099C0.736 15.0139 0.496 14.5499 0.336 14.1179C0.192 13.6699 0.096 13.3099 0.048 13.0379C0.016 12.7499 0 12.6059 0 12.6059H3.744C3.744 12.6059 3.776 12.7419 3.84 13.0139C3.92 13.2859 4.08 13.6059 4.32 13.9739C4.56 14.3259 4.928 14.6379 5.424 14.9099C5.92 15.1659 6.592 15.2939 7.44 15.2939C8.48 15.2939 9.248 15.0779 9.744 14.6459C10.24 14.1979 10.488 13.6699 10.488 13.0619C10.488 12.5179 10.296 12.0859 9.912 11.7659C9.544 11.4459 8.968 11.2059 8.184 11.0459L5.808 10.5899C4.848 10.4139 3.952 10.1339 3.12 9.7499C2.304 9.3659 1.64 8.8379 1.128 8.1659C0.616 7.4779 0.36 6.5979 0.36 5.5259C0.36 4.4379 0.632 3.4939 1.176 2.6939C1.72 1.8779 2.48 1.2539 3.456 0.821902C4.448 0.373902 5.608 0.149902 6.936 0.149902C8.184 0.149902 9.216 0.333902 10.032 0.701902C10.864 1.0539 11.52 1.4939 12 2.0219C12.496 2.5339 12.856 3.0539 13.08 3.5819C13.32 4.1099 13.472 4.5499 13.536 4.9019C13.616 5.2539 13.656 5.4299 13.656 5.4299H10.008C10.008 5.4299 9.976 5.3179 9.912 5.0939C9.864 4.8699 9.736 4.6139 9.528 4.3259C9.32 4.0379 9 3.7819 8.568 3.5579C8.152 3.3339 7.576 3.2219 6.84 3.2219C5.832 3.2219 5.104 3.4459 4.656 3.8939C4.208 4.3259 3.984 4.7979 3.984 5.3099C3.984 5.8379 4.208 6.2459 4.656 6.5339C5.104 6.8219 5.688 7.0379 6.408 7.1819L8.928 7.6859C9.888 7.8619 10.768 8.1579 11.568 8.5739C12.368 8.9899 13 9.5499 13.464 10.2539C13.944 10.9419 14.184 11.7979 14.184 12.8219C14.184 13.8779 13.92 14.8299 13.392 15.6779C12.864 16.5099 12.088 17.1739 11.064 17.6699C10.04 18.1499 8.784 18.3899 7.296 18.3899Z"
          fill="#EFECE6"/>
    <path d="M15.6964 18.1499V5.4299H19.3444V7.1579H19.4644C19.7364 6.6939 20.1444 6.2539 20.6884 5.8379C21.2324 5.4059 21.9764 5.1899 22.9204 5.1899C23.8804 5.1899 24.6484 5.4139 25.2244 5.8619C25.8164 6.3099 26.2484 6.8619 26.5204 7.5179H26.5684C26.7764 7.1499 27.0484 6.7899 27.3844 6.4379C27.7364 6.0699 28.1684 5.7739 28.6804 5.5499C29.2084 5.3099 29.8244 5.1899 30.5284 5.1899C31.4084 5.1899 32.1364 5.3899 32.7124 5.7899C33.2884 6.1899 33.7124 6.7179 33.9844 7.3739C34.2724 8.0139 34.4164 8.7019 34.4164 9.4379V18.1499H30.7684V10.3499C30.7684 9.7259 30.6084 9.2139 30.2884 8.8139C29.9844 8.3979 29.5204 8.1899 28.8964 8.1899C28.4164 8.1899 28.0244 8.3099 27.7204 8.5499C27.4324 8.7899 27.2164 9.1019 27.0724 9.4859C26.9444 9.8539 26.8804 10.2379 26.8804 10.6379V18.1499H23.2324V10.3499C23.2324 9.7259 23.0724 9.2139 22.7524 8.8139C22.4484 8.3979 21.9844 8.1899 21.3604 8.1899C20.8804 8.1899 20.4884 8.3099 20.1844 8.5499C19.8964 8.7899 19.6804 9.1019 19.5364 9.4859C19.4084 9.8539 19.3444 10.2379 19.3444 10.6379V18.1499H15.6964Z"
          fill="#EFECE6"/>
    <path d="M41.7754 5.1899C42.5914 5.1899 43.2634 5.3259 43.7914 5.5979C44.3194 5.8539 44.7194 6.1339 44.9914 6.4379C45.2794 6.7419 45.4554 6.9499 45.5194 7.0619H45.7114V5.4299H49.3594V18.1499H45.7114V16.5179H45.5194C45.4554 16.6299 45.2794 16.8379 44.9914 17.1419C44.7194 17.4459 44.3194 17.7339 43.7914 18.0059C43.2634 18.2619 42.5914 18.3899 41.7754 18.3899C40.8314 18.3899 40.0074 18.2059 39.3034 17.8379C38.6154 17.4539 38.0394 16.9499 37.5754 16.3259C37.1114 15.6859 36.7594 14.9739 36.5194 14.1899C36.2954 13.4059 36.1834 12.6059 36.1834 11.7899C36.1834 10.9739 36.2954 10.1739 36.5194 9.3899C36.7594 8.6059 37.1114 7.9019 37.5754 7.2779C38.0394 6.6379 38.6154 6.1339 39.3034 5.7659C40.0074 5.3819 40.8314 5.1899 41.7754 5.1899ZM42.8314 8.1419C42.1754 8.1419 41.6234 8.3259 41.1754 8.6939C40.7434 9.0459 40.4154 9.5019 40.1914 10.0619C39.9834 10.6219 39.8794 11.1979 39.8794 11.7899C39.8794 12.3819 39.9834 12.9579 40.1914 13.5179C40.4154 14.0779 40.7434 14.5419 41.1754 14.9099C41.6234 15.2619 42.1754 15.4379 42.8314 15.4379C43.4874 15.4379 44.0314 15.2619 44.4634 14.9099C44.9114 14.5419 45.2394 14.0779 45.4474 13.5179C45.6714 12.9579 45.7834 12.3819 45.7834 11.7899C45.7834 11.1979 45.6714 10.6219 45.4474 10.0619C45.2394 9.5019 44.9114 9.0459 44.4634 8.6939C44.0314 8.3259 43.4874 8.1419 42.8314 8.1419Z"
          fill="#EFECE6"/>
    <path d="M51.4282 18.1499V5.4299H55.0522V7.2779H55.1722C55.3162 6.9419 55.5163 6.6139 55.7723 6.2939C56.0283 5.9739 56.3802 5.7099 56.8283 5.5019C57.2763 5.2939 57.8523 5.1899 58.5563 5.1899C58.9083 5.1899 59.1883 5.2139 59.3963 5.2619C59.6043 5.2939 59.7083 5.3099 59.7083 5.3099V8.9099C59.7083 8.9099 59.5883 8.8859 59.3483 8.8379C59.1243 8.7899 58.8283 8.7659 58.4603 8.7659C57.3242 8.7659 56.4762 9.0779 55.9162 9.7019C55.3562 10.3099 55.0763 11.3099 55.0763 12.7019V18.1499H51.4282Z"
          fill="#EFECE6"/>
    <path d="M67.0659 18.3899C66.0739 18.3899 65.2819 18.2459 64.6899 17.9579C64.0979 17.6539 63.6499 17.2779 63.3459 16.8299C63.0419 16.3659 62.8419 15.8779 62.7459 15.3659C62.6499 14.8539 62.6019 14.3819 62.6019 13.9499V8.3339H60.4419V5.4299H62.6019V2.2859H66.2499V5.4299H68.9619V8.3339H66.2499V13.8539C66.2499 14.3819 66.3859 14.7899 66.6579 15.0779C66.9459 15.3659 67.4179 15.5099 68.0739 15.5099C68.3619 15.5099 68.6259 15.4859 68.8659 15.4379C69.1059 15.3899 69.2259 15.3659 69.2259 15.3659V18.1739C69.2259 18.1739 69.0099 18.2059 68.5779 18.2699C68.1459 18.3499 67.6419 18.3899 67.0659 18.3899Z"
          fill="#EFECE6"/>
    <path d="M71.1814 18.1499V0.389904H74.5654L82.2214 11.7179V0.389904H85.8934V18.1499H82.4614L74.8534 7.1339V18.1499H71.1814Z"
          fill="#EFECE6"/>
    <path d="M94.5613 18.3899C93.1373 18.3899 91.9293 18.0859 90.9373 17.4779C89.9453 16.8539 89.1853 16.0459 88.6573 15.0539C88.1453 14.0459 87.8893 12.9579 87.8893 11.7899C87.8893 10.6219 88.1453 9.5419 88.6573 8.5499C89.1853 7.5419 89.9453 6.7339 90.9373 6.1259C91.9293 5.5019 93.1373 5.1899 94.5613 5.1899C95.9853 5.1899 97.1933 5.5019 98.1853 6.1259C99.1773 6.7339 99.9293 7.5419 100.441 8.5499C100.969 9.5419 101.233 10.6219 101.233 11.7899C101.233 12.9579 100.969 14.0459 100.441 15.0539C99.9293 16.0459 99.1773 16.8539 98.1853 17.4779C97.1933 18.0859 95.9853 18.3899 94.5613 18.3899ZM94.5613 15.4139C95.2013 15.4139 95.7373 15.2459 96.1693 14.9099C96.6173 14.5739 96.9613 14.1339 97.2013 13.5899C97.4413 13.0299 97.5613 12.4299 97.5613 11.7899C97.5613 11.1339 97.4413 10.5339 97.2013 9.9899C96.9613 9.4459 96.6173 9.0059 96.1693 8.6699C95.7373 8.3339 95.2013 8.1659 94.5613 8.1659C93.9213 8.1659 93.3773 8.3339 92.9293 8.6699C92.4813 9.0059 92.1373 9.4459 91.8973 9.9899C91.6733 10.5339 91.5613 11.1339 91.5613 11.7899C91.5613 12.4299 91.6733 13.0299 91.8973 13.5899C92.1373 14.1339 92.4813 14.5739 92.9293 14.9099C93.3773 15.2459 93.9213 15.4139 94.5613 15.4139Z"
          fill="#EFECE6"/>
    <path d="M108.828 18.3899C107.836 18.3899 107.044 18.2459 106.452 17.9579C105.86 17.6539 105.412 17.2779 105.108 16.8299C104.804 16.3659 104.604 15.8779 104.508 15.3659C104.412 14.8539 104.364 14.3819 104.364 13.9499V8.3339H102.204V5.4299H104.364V2.2859H108.012V5.4299H110.724V8.3339H108.012V13.8539C108.012 14.3819 108.148 14.7899 108.42 15.0779C108.708 15.3659 109.18 15.5099 109.836 15.5099C110.124 15.5099 110.388 15.4859 110.628 15.4379C110.868 15.3899 110.988 15.3659 110.988 15.3659V18.1739C110.988 18.1739 110.772 18.2059 110.34 18.2699C109.908 18.3499 109.404 18.3899 108.828 18.3899Z"
          fill="#EFECE6"/>
    <path d="M118.852 18.3899C117.732 18.3899 116.764 18.2059 115.948 17.8379C115.132 17.4539 114.46 16.9499 113.932 16.3259C113.404 15.6859 113.004 14.9739 112.732 14.1899C112.476 13.4059 112.348 12.5979 112.348 11.7659C112.348 10.9659 112.468 10.1819 112.708 9.4139C112.964 8.6299 113.348 7.9179 113.86 7.2779C114.388 6.6379 115.052 6.1339 115.852 5.7659C116.668 5.3819 117.628 5.1899 118.732 5.1899C119.9 5.1899 120.932 5.4459 121.828 5.9579C122.74 6.4699 123.452 7.2299 123.964 8.2379C124.476 9.2299 124.732 10.4379 124.732 11.8619V12.7499H116.02C116.068 13.5179 116.332 14.1819 116.812 14.7419C117.308 15.3019 117.988 15.5819 118.852 15.5819C119.348 15.5819 119.748 15.5099 120.052 15.3659C120.372 15.2059 120.62 15.0299 120.796 14.8379C120.972 14.6299 121.092 14.4459 121.156 14.2859C121.22 14.1259 121.252 14.0459 121.252 14.0459H124.612C124.612 14.0459 124.572 14.1979 124.492 14.5019C124.428 14.7899 124.284 15.1499 124.06 15.5819C123.836 16.0139 123.508 16.4459 123.076 16.8779C122.66 17.3099 122.108 17.6699 121.42 17.9579C120.732 18.2459 119.876 18.3899 118.852 18.3899ZM116.02 10.5419H121.228C121.18 9.6619 120.916 9.0059 120.436 8.5739C119.956 8.1419 119.364 7.9259 118.66 7.9259C117.956 7.9259 117.356 8.1579 116.86 8.6219C116.364 9.0699 116.084 9.7099 116.02 10.5419Z"
          fill="#EFECE6"/>
    <path d="M131.984 18.3899C130.928 18.3899 130.056 18.2459 129.368 17.9579C128.68 17.6699 128.128 17.3179 127.712 16.9019C127.312 16.4699 127.008 16.0459 126.8 15.6299C126.608 15.1979 126.48 14.8379 126.416 14.5499C126.368 14.2619 126.344 14.1179 126.344 14.1179H129.728C129.728 14.1179 129.752 14.1979 129.8 14.3579C129.848 14.5179 129.952 14.7019 130.112 14.9099C130.288 15.1179 130.536 15.3019 130.856 15.4619C131.176 15.6219 131.608 15.7019 132.152 15.7019C132.824 15.7019 133.28 15.5659 133.52 15.2939C133.776 15.0219 133.904 14.7499 133.904 14.4779C133.904 13.9019 133.432 13.5179 132.488 13.3259L130.76 12.9899C130.024 12.8459 129.328 12.6379 128.672 12.3659C128.032 12.0779 127.512 11.6859 127.112 11.1899C126.728 10.6779 126.536 10.0219 126.536 9.2219C126.536 8.4539 126.736 7.7659 127.136 7.1579C127.536 6.5499 128.104 6.0699 128.84 5.7179C129.592 5.3659 130.488 5.1899 131.528 5.1899C132.504 5.1899 133.312 5.3259 133.952 5.5979C134.608 5.8539 135.128 6.1819 135.512 6.5819C135.896 6.9659 136.184 7.3579 136.376 7.7579C136.568 8.1419 136.688 8.4699 136.736 8.7419C136.8 8.9979 136.832 9.1259 136.832 9.1259H133.568C133.568 9.1259 133.52 9.0219 133.424 8.8139C133.328 8.5899 133.128 8.3739 132.824 8.1659C132.536 7.9419 132.088 7.8299 131.48 7.8299C130.856 7.8299 130.424 7.9579 130.184 8.2139C129.944 8.4539 129.824 8.7099 129.824 8.9819C129.824 9.3019 129.96 9.5419 130.232 9.7019C130.52 9.8619 130.888 9.9899 131.336 10.0859L132.992 10.4219C134.208 10.6619 135.208 11.0859 135.992 11.6939C136.776 12.2859 137.168 13.1499 137.168 14.2859C137.168 15.0539 136.968 15.7499 136.568 16.3739C136.168 16.9979 135.584 17.4939 134.816 17.8619C134.048 18.2139 133.104 18.3899 131.984 18.3899Z"
          fill="#EFECE6"/>
</svg>
