<svg width="80" height="81" viewBox="0 0 80 81" fill="none" xmlns="http://www.w3.org/2000/svg">
    <rect y="0.711914" width="80" height="80" rx="24" fill="#F3F4F6"/>
    <path d="M31.2134 25.2944C31.2134 25.8516 31.1688 26.7802 30.6333 27.3838C30.0532 27.9409 29.1607 27.9874 28.6253 27.9874C25.6129 27.9874 21.4342 27.2194 18.585 28.4052C22.9334 20.4897 31.3572 15.2299 31.3027 15.6834C30.9013 18.8156 31.2134 22.144 31.2134 25.2944ZM40.2274 61.2312C40.2274 57.3775 43.2618 54.2203 47.0101 54.2203C48.1257 54.2203 49.0182 55.1489 49.0182 56.3096C49.0182 57.0989 48.6166 57.749 47.9918 58.1204C47.3115 58.5452 46.3691 58.347 45.7607 58.9097C45.3144 59.2811 44.9575 59.8847 44.9575 60.5348C44.9575 61.2312 45.2252 61.8812 45.6714 62.3455C46.4747 63.1813 47.5456 63.6456 48.7058 63.6456C51.7402 63.6456 54.1945 61.0919 54.1945 57.9347C54.1945 55.1025 52.365 52.5952 49.9553 51.4809C46.2983 49.5784 40.7031 50.6611 40.272 44.7021C39.6013 47.8539 38.1217 53.4774 34.114 53.4774C22.0073 54.2257 17.6436 44.277 16.8 33.7447C16.8 31.4696 18.1388 29.9374 19.8344 29.7053C22.8688 29.7053 25.9032 29.7053 28.9376 29.7053C30.4995 29.7053 31.3919 29.2874 31.972 28.7302C32.7306 27.9874 32.9091 26.9195 32.9091 25.6659C32.9091 22.4003 32.9091 17.3786 32.9091 15.8692C32.9091 13.8979 34.6048 12.7119 36.7914 12.7119C38.0795 12.7119 39.2883 12.7578 40.5397 13.0834C43.2618 13.7798 43.8419 16.6585 43.8419 16.6585C43.8419 16.6585 48.9736 17.5871 51.5617 18.0514C54.016 18.5157 60.0848 18.9335 61.245 25.2944C63.9671 40.4306 62.316 55.1025 62.1821 55.1025C60.2633 69.4029 48.8397 68.7064 48.8397 68.7064C44.6872 68.7064 40.2274 65.8315 40.2274 61.2312ZM53.6144 36.5769C52.1418 36.4376 50.8924 37.0412 50.4461 38.202C49.8138 39.8468 56.3364 41.2147 56.3364 38.9448C56.1579 37.6448 55.087 36.7626 53.6144 36.5769Z"
          fill="#00A82D"/>
</svg>
