<svg width="80" height="81" viewBox="0 0 80 81" fill="none" xmlns="http://www.w3.org/2000/svg">
    <rect y="0.711914" width="80" height="80" rx="24" fill="#F3F4F6"/>
    <path fill-rule="evenodd" clip-rule="evenodd"
          d="M39.9999 40.7121C39.9999 35.9256 44.0294 32.0454 48.9999 32.0454C53.9705 32.0454 57.9999 35.9256 57.9999 40.7121C57.9999 45.4985 53.9705 49.3787 48.9999 49.3787C44.0294 49.3787 39.9999 45.4985 39.9999 40.7121Z"
          fill="#1ABCFE"/>
    <path fill-rule="evenodd" clip-rule="evenodd"
          d="M22 58.0453C22 53.2589 26.0294 49.3787 31 49.3787H40V58.0453C40 62.8318 35.9706 66.712 31 66.712C26.0294 66.712 22 62.8318 22 58.0453Z"
          fill="#0ACF83"/>
    <path fill-rule="evenodd" clip-rule="evenodd"
          d="M39.9999 14.7119V32.0452H48.9999C53.9705 32.0452 57.9999 28.165 57.9999 23.3786C57.9999 18.5921 53.9705 14.7119 48.9999 14.7119H39.9999Z"
          fill="#FF7262"/>
    <path fill-rule="evenodd" clip-rule="evenodd"
          d="M22 23.3786C22 28.165 26.0294 32.0452 31 32.0452H40V14.7119H31C26.0294 14.7119 22 18.5921 22 23.3786Z"
          fill="#F24E1E"/>
    <path fill-rule="evenodd" clip-rule="evenodd"
          d="M22 40.7118C22 45.4983 26.0294 49.3785 31 49.3785H40V32.0452H31C26.0294 32.0452 22 35.9254 22 40.7118Z"
          fill="#A259FF"/>
</svg>
