<svg width="80" height="81" viewBox="0 0 80 81" fill="none" xmlns="http://www.w3.org/2000/svg">
    <rect y="0.711914" width="80" height="80" rx="24" fill="#F3F4F6"/>
    <path d="M53.2028 25.937L40.14 35.8315L26.7785 25.937V25.9397L26.7947 25.9531V39.8081L39.9893 49.9165L53.2028 40.1985V25.937Z"
          fill="#EA4335"/>
    <path d="M56.6331 23.5301L53.2026 25.9369V40.1984L63.9973 32.1544V27.3088C63.9973 27.3088 62.6869 20.388 56.6331 23.5301Z"
          fill="#FBBC05"/>
    <path d="M53.2026 40.1988V58.6962H61.4762C61.4762 58.6962 63.8304 58.4609 64 55.8562V32.1548L53.2026 40.1988Z"
          fill="#34A853"/>
    <path d="M26.7949 58.7117V39.8078L26.7785 39.7944L26.7949 58.7117Z" fill="#C5221F"/>
    <path d="M26.7785 25.9399L23.3668 23.5465C17.313 20.4043 16 27.3225 16 27.3225V32.1681L26.7785 39.7949V25.9399Z"
          fill="#C5221F"/>
    <path d="M26.7785 25.9397V39.7947L26.7949 39.8081V25.9531L26.7785 25.9397Z" fill="#C5221F"/>
    <path d="M16 32.1704V55.8718C16.1668 58.4792 18.5238 58.7118 18.5238 58.7118H26.7973L26.7785 39.7945L16 32.1704Z"
          fill="#4285F4"/>
</svg>
