<svg width="80" height="81" viewBox="0 0 80 81" fill="none" xmlns="http://www.w3.org/2000/svg">
    <rect y="0.711914" width="80" height="80" rx="24" fill="#F3F4F6"/>
    <path d="M31.2089 36.2557V35.8819C31.2089 34.9343 31.9718 34.1484 32.9551 34.0831L40.1173 33.6074L50.0221 48.1169V35.3823L47.4726 35.0443V34.8667C47.4726 33.9079 48.253 33.1168 49.2488 33.0661L55.7657 32.734V33.6669C55.7657 34.1049 55.4383 34.4795 54.9896 34.555L53.4213 34.8189V55.442L51.4532 56.1154C49.8089 56.6779 47.9784 56.0757 47.0371 54.6628L37.4213 40.2282V54.0052L40.381 54.5687L40.3398 54.8418C40.2106 55.6972 39.4682 56.3442 38.5701 56.3839L31.2089 56.7099C31.1116 55.79 31.8046 54.967 32.7607 54.8671L33.729 54.7659V36.3966L31.2089 36.2557Z"
          fill="#22272F"/>
    <path fill-rule="evenodd" clip-rule="evenodd"
          d="M48.649 16.7254L19.1379 18.7297C17.3702 18.8498 16 20.2635 16 21.9673V50.5211C16 52.1219 16.5539 53.6773 17.5746 54.9421L23.9376 62.8277C24.9664 64.1026 26.5854 64.8046 28.2604 64.702L61.0144 62.6964C62.6931 62.5935 64 61.2545 64 59.6372V27.1743C64 26.1737 63.4921 25.2361 62.6393 24.6626L52.2707 17.6888C51.214 16.9781 49.9354 16.638 48.649 16.7254ZM20.6013 22.4126C20.1909 22.1104 20.3862 21.4806 20.9018 21.4438L48.8475 19.4498C49.7379 19.3863 50.6227 19.6302 51.3428 20.1377L56.9499 24.0895C57.1628 24.2395 57.0629 24.5634 56.7994 24.5777L27.2049 26.1788C26.3093 26.2273 25.4253 25.9655 24.7132 25.4411L20.6013 22.4126ZM25.8168 31.1983C25.8168 30.2418 26.5936 29.4518 27.5868 29.398L58.8765 27.7028C59.8445 27.6504 60.6593 28.3909 60.6593 29.3231V57.4326C60.6593 58.3873 59.8854 59.1765 58.8941 59.2326L27.8025 60.9924C26.7253 61.0534 25.8168 60.2299 25.8168 59.1924V31.1983Z"
          fill="#22272F"/>
</svg>
