<svg width="80" height="81" viewBox="0 0 80 81" fill="none" xmlns="http://www.w3.org/2000/svg">
    <rect y="0.711914" width="80" height="80" rx="24" fill="#F3F4F6"/>
    <path d="M60.8001 38.7115C63.5613 38.7115 65.7996 36.4731 65.7996 33.7119C65.7996 30.9508 63.5611 28.7124 60.7999 28.7124C58.0385 28.7124 55.7997 30.951 55.7997 33.7124V38.7115H60.8001ZM46.7997 38.7115C49.5611 38.7115 51.7997 36.4729 51.7997 33.7115V19.7124C51.7997 16.951 49.5611 14.7124 46.7997 14.7124C44.0383 14.7124 41.7997 16.951 41.7997 19.7124V33.7115C41.7997 36.4729 44.0383 38.7115 46.7997 38.7115Z"
          fill="#2EB67D"/>
    <path d="M18.7998 42.7123C16.0386 42.7123 13.8002 44.9507 13.8002 47.7119C13.8002 50.4731 16.0388 52.7114 18.8 52.7114C21.5614 52.7114 23.8002 50.4729 23.8002 47.7115V42.7123H18.7998ZM32.8002 42.7123C30.0388 42.7123 27.8002 44.9509 27.8002 47.7123V61.7114C27.8002 64.4728 30.0388 66.7114 32.8002 66.7114C35.5616 66.7114 37.8002 64.4729 37.8002 61.7114V47.7123C37.8002 44.9509 35.5616 42.7123 32.8002 42.7123Z"
          fill="#E01E5A"/>
    <path d="M41.8008 61.7123C41.8008 64.4735 44.0392 66.7119 46.8004 66.7119C49.5616 66.7119 51.7999 64.4733 51.7999 61.7121C51.7999 58.9507 49.5614 56.7119 46.8 56.7119L41.8008 56.7119L41.8008 61.7123ZM41.8008 47.7119C41.8008 50.4733 44.0394 52.7119 46.8008 52.7119L60.7999 52.7119C63.5613 52.7119 65.7999 50.4733 65.7999 47.7119C65.7999 44.9505 63.5614 42.7119 60.7999 42.7119L46.8008 42.7119C44.0394 42.7119 41.8008 44.9505 41.8008 47.7119Z"
          fill="#ECB22E"/>
    <path d="M37.799 19.7115C37.799 16.9503 35.5607 14.7119 32.7995 14.7119C30.0383 14.7119 27.7999 16.9505 27.7999 19.7117C27.7999 22.4731 30.0385 24.7119 32.7999 24.7119L37.799 24.7119L37.799 19.7115ZM37.799 33.7119C37.799 30.9505 35.5605 28.7119 32.799 28.7119L18.7999 28.7119C16.0385 28.7119 13.7999 30.9505 13.7999 33.7119C13.7999 36.4733 16.0385 38.7119 18.7999 38.7119L32.799 38.7119C35.5605 38.7119 37.799 36.4733 37.799 33.7119Z"
          fill="#36C5F0"/>
</svg>
