<svg width="80" height="81" viewBox="0 0 80 81" fill="none" xmlns="http://www.w3.org/2000/svg">
    <rect y="0.711914" width="80" height="80" rx="24" fill="#F3F4F6"/>
    <path d="M45.0659 45.7897C41.8094 47.0151 38.1602 47.0174 34.9036 45.7904C33.6766 42.5373 33.6763 38.8887 34.9017 35.6351C38.1575 34.4075 41.8103 34.4073 45.0661 35.6349C46.2926 38.8875 46.2921 42.537 45.0659 45.7897ZM63.6663 36.7119H49.648L59.5599 26.8054C58.0043 24.6215 56.0839 22.7032 53.8988 21.1485L43.9861 31.055V17.0452C41.3406 16.6005 38.6274 16.6011 35.9818 17.0452V31.055L26.0692 21.1485C23.8847 22.7021 21.9636 24.6231 20.4079 26.8054L30.3213 36.7119H16.3031C15.9571 39.4352 15.8447 41.9945 16.3031 44.7121H30.3215L20.4081 54.6186C21.9676 56.8057 23.8808 58.7178 26.0692 60.2763L35.9818 50.369V64.3795C38.6277 64.8226 41.3401 64.8228 43.986 64.3795V50.369L53.8995 60.2763C56.0855 58.72 58.0026 56.8032 59.5599 54.6186L49.6465 44.7121H63.6663C64.1112 42.0704 64.1112 39.3536 63.6663 36.7119Z"
          fill="#FF4A00"/>
</svg>
