<svg width="16" height="17" viewBox="0 0 16 17" fill="none" xmlns="http://www.w3.org/2000/svg">
    <path d="M8 14.7119C7.60417 14.7119 7.23958 14.613 6.90625 14.415C6.58333 14.2275 6.32292 13.9724 6.125 13.6494C5.9375 13.3161 5.84375 12.9515 5.84375 12.5556C5.84375 12.0557 5.95833 11.639 6.1875 11.3057C6.41667 10.9724 6.77083 10.5817 7.25 10.1338C7.60417 9.81087 7.78125 9.50355 7.78125 9.21189V8.93067H7.5C7.17708 8.93067 6.73437 9.25359 6.17187 9.89943C5.61979 10.5453 4.94791 10.8681 4.15625 10.8681C3.76042 10.8681 3.39583 10.7744 3.0625 10.5869C2.73958 10.389 2.47917 10.1286 2.28125 9.80565C2.09375 9.47235 2 9.10773 2 8.71191C2 8.31608 2.09375 7.95671 2.28125 7.63379C2.47917 7.30046 2.73958 7.04004 3.0625 6.85254C3.39583 6.65462 3.76042 6.55566 4.15625 6.55566C4.9375 6.55566 5.60416 6.87337 6.15625 7.50879C6.70833 8.14421 7.15625 8.46191 7.5 8.46191H7.78125V8.21192C7.78125 7.92024 7.60417 7.61295 7.25 7.29004L6.89062 6.96191C6.63021 6.72233 6.39063 6.43587 6.17187 6.10254C5.95312 5.75879 5.84375 5.34733 5.84375 4.86816C5.84375 4.47233 5.9375 4.11296 6.125 3.79004C6.32292 3.45671 6.58333 3.19629 6.90625 3.00879C7.23958 2.81087 7.60417 2.71191 8 2.71191C8.39582 2.71191 8.75522 2.81087 9.07814 3.00879C9.41144 3.20671 9.6719 3.46712 9.8594 3.79004C10.0573 4.11296 10.1562 4.47233 10.1562 4.86816C10.1562 5.64941 9.83852 6.31608 9.20312 6.86816C8.56772 7.42025 8.25002 7.86816 8.25002 8.21192V8.46191H8.49998C8.85416 8.46191 9.30206 8.14421 9.84374 7.50879C10.375 6.87337 11.0416 6.55566 11.8438 6.55566C12.2396 6.55566 12.5989 6.65462 12.9219 6.85254C13.2552 7.04004 13.5156 7.29525 13.7031 7.61816C13.9011 7.94108 14 8.30567 14 8.71191C14 9.10773 13.9011 9.47235 13.7031 9.80565C13.5156 10.1286 13.2552 10.389 12.9219 10.5869C12.5989 10.7744 12.2396 10.8681 11.8438 10.8681C11.3542 10.8681 10.9323 10.7484 10.5781 10.5088C10.2344 10.2692 9.84896 9.92025 9.42188 9.46191C9.09896 9.10773 8.79164 8.93067 8.49998 8.93067H8.25002V9.21189C8.25002 9.59733 8.56772 10.0452 9.20312 10.5557C9.83852 11.0661 10.1562 11.7327 10.1562 12.5556C10.1562 12.9515 10.0573 13.3161 9.8594 13.6494C9.6719 13.9724 9.41666 14.2275 9.09374 14.415C8.77082 14.613 8.40626 14.7119 8 14.7119Z"
          fill="#779ACF"/>
</svg>
