<svg width="20" height="21" viewBox="0 0 20 21" fill="none" xmlns="http://www.w3.org/2000/svg">
    <path d="M18.3333 5.10328C17.7069 5.37503 17.0445 5.55467 16.3666 5.63662C17.0818 5.20938 17.6177 4.53727 17.875 3.74495C17.2029 4.145 16.4673 4.42686 15.7 4.57828C15.1871 4.02209 14.5041 3.65186 13.7581 3.52566C13.0122 3.39946 12.2454 3.52442 11.5781 3.88094C10.9108 4.23747 10.3807 4.80539 10.071 5.49565C9.76125 6.1859 9.68937 6.95944 9.86663 7.69495C8.50781 7.62622 7.17866 7.27241 5.9655 6.6565C4.75235 6.04059 3.68233 5.17636 2.82496 4.11995C2.52424 4.64509 2.36623 5.2398 2.36663 5.84495C2.36556 6.40694 2.50347 6.96046 2.76809 7.45625C3.0327 7.95204 3.41581 8.37471 3.88329 8.68662C3.33994 8.67183 2.8082 8.52603 2.33329 8.26162V8.30328C2.33737 9.09069 2.61329 9.85253 3.11439 10.4599C3.61549 11.0673 4.31101 11.483 5.08329 11.6366C4.78601 11.7271 4.47736 11.7748 4.16663 11.7783C3.95153 11.7758 3.73698 11.7563 3.52496 11.72C3.74488 12.3973 4.17048 12.9892 4.74252 13.4134C5.31456 13.8376 6.00461 14.0729 6.71663 14.0866C5.5143 15.0327 4.02986 15.549 2.49996 15.5533C2.22141 15.5542 1.94307 15.5375 1.66663 15.5033C3.22865 16.5118 5.04897 17.0472 6.90829 17.045C8.19137 17.0583 9.46424 16.8158 10.6526 16.3317C11.8409 15.8476 12.9208 15.1315 13.8293 14.2254C14.7378 13.3192 15.4566 12.2411 15.9438 11.054C16.4309 9.86697 16.6767 8.59472 16.6666 7.31162C16.6666 7.16995 16.6666 7.01995 16.6666 6.86995C17.3205 6.38229 17.8845 5.78447 18.3333 5.10328Z"
          fill="#EFECE6"/>
</svg>
