<svg width="20" height="21" viewBox="0 0 20 21" fill="none" xmlns="http://www.w3.org/2000/svg">
    <path d="M19.1666 8.36167C19.2078 7.16888 18.947 5.98502 18.4083 4.92001C18.0428 4.483 17.5355 4.1881 16.9749 4.08667C14.6562 3.87628 12.3279 3.79004 9.99994 3.82834C7.68048 3.7883 5.36053 3.87176 3.04994 4.07834C2.59312 4.16144 2.17037 4.37571 1.83327 4.69501C1.08327 5.38667 0.999941 6.57001 0.916608 7.57001C0.795701 9.36798 0.795701 11.172 0.916608 12.97C0.940716 13.5328 1.02452 14.0915 1.16661 14.6367C1.26709 15.0576 1.47038 15.447 1.75827 15.77C2.09766 16.1062 2.53026 16.3327 2.99994 16.42C4.79654 16.6418 6.60679 16.7337 8.41661 16.695C11.3333 16.7367 13.8916 16.695 16.9166 16.4617C17.3978 16.3797 17.8426 16.153 18.1916 15.8117C18.4249 15.5783 18.5992 15.2926 18.6999 14.9783C18.998 14.0639 19.1443 13.1068 19.1333 12.145C19.1666 11.6783 19.1666 8.86167 19.1666 8.36167ZM8.11661 12.645V7.48667L13.0499 10.0783C11.6666 10.845 9.84161 11.7117 8.11661 12.645Z"
          fill="#EFECE6"/>
</svg>
